<svg width="34" height="34" viewBox="0 0 34 34" fill="none" xmlns="http://www.w3.org/2000/svg">
<g clip-path="url(#clip0_32_70)">
<path d="M16.9997 28.3333C20.0045 28.33 22.8852 27.1348 25.0099 25.0101C27.1345 22.8855 28.3297 20.0048 28.333 17V11.3333C28.333 8.32755 27.139 5.44487 25.0136 3.31946C22.8882 1.19404 20.0055 0 16.9997 0C13.9939 0 11.1113 1.19404 8.98584 3.31946C6.86043 5.44487 5.66638 8.32755 5.66638 11.3333V17C5.66976 20.0048 6.86488 22.8855 8.98957 25.0101C11.1142 27.1348 13.995 28.33 16.9997 28.3333V28.3333ZM16.9997 2.83333C19.0065 2.83706 20.9474 3.54998 22.4794 4.84613C24.0115 6.14228 25.0361 7.93823 25.3722 9.91667H21.2497C20.874 9.91667 20.5137 10.0659 20.248 10.3316C19.9823 10.5973 19.833 10.9576 19.833 11.3333C19.833 11.7091 19.9823 12.0694 20.248 12.3351C20.5137 12.6007 20.874 12.75 21.2497 12.75H25.4997V15.5833H21.2497C20.874 15.5833 20.5137 15.7326 20.248 15.9983C19.9823 16.2639 19.833 16.6243 19.833 17C19.833 17.3757 19.9823 17.7361 20.248 18.0017C20.5137 18.2674 20.874 18.4167 21.2497 18.4167H25.3722C25.0393 20.3964 24.0155 22.1942 22.4827 23.4907C20.9499 24.7872 19.0073 25.4986 16.9997 25.4986C14.9921 25.4986 13.0495 24.7872 11.5167 23.4907C9.98393 22.1942 8.96018 20.3964 8.62722 18.4167H12.7497C13.1254 18.4167 13.4858 18.2674 13.7514 18.0017C14.0171 17.7361 14.1664 17.3757 14.1664 17C14.1664 16.6243 14.0171 16.2639 13.7514 15.9983C13.4858 15.7326 13.1254 15.5833 12.7497 15.5833H8.49972V12.75H12.7497C13.1254 12.75 13.4858 12.6007 13.7514 12.3351C14.0171 12.0694 14.1664 11.7091 14.1664 11.3333C14.1664 10.9576 14.0171 10.5973 13.7514 10.3316C13.4858 10.0659 13.1254 9.91667 12.7497 9.91667H8.62722C8.96335 7.93823 9.98796 6.14228 11.52 4.84613C13.0521 3.54998 14.9929 2.83706 16.9997 2.83333V2.83333Z" fill="white"/>
<path d="M32.5833 17C32.2076 17 31.8473 17.1493 31.5816 17.4149C31.3159 17.6806 31.1667 18.0409 31.1667 18.4167C31.1629 21.797 29.8184 25.0379 27.4281 27.4281C25.0379 29.8184 21.797 31.1629 18.4167 31.1667H15.5833C12.2031 31.1625 8.96247 29.8179 6.57228 27.4277C4.18208 25.0375 2.83746 21.7969 2.83333 18.4167C2.83333 18.0409 2.68408 17.6806 2.4184 17.4149C2.15272 17.1493 1.79239 17 1.41667 17C1.04094 17 0.680609 17.1493 0.414932 17.4149C0.149256 17.6806 0 18.0409 0 18.4167C0.004874 22.5481 1.64825 26.509 4.56964 29.4304C7.49102 32.3517 11.4519 33.9951 15.5833 34H18.4167C22.5481 33.9951 26.509 32.3517 29.4304 29.4304C32.3517 26.509 33.9951 22.5481 34 18.4167C34 18.0409 33.8507 17.6806 33.5851 17.4149C33.3194 17.1493 32.9591 17 32.5833 17Z" fill="white"/>
</g>
<defs>
<clipPath id="clip0_32_70">
<rect width="34" height="34" fill="white"/>
</clipPath>
</defs>
</svg>
