<svg width="28" height="28" viewBox="0 0 28 28" fill="none" xmlns="http://www.w3.org/2000/svg">
<g clip-path="url(#clip0_32_129)">
<path d="M14.0001 4.66667C15.2887 4.66667 16.3334 3.622 16.3334 2.33333C16.3334 1.04467 15.2887 0 14.0001 0C12.7114 0 11.6667 1.04467 11.6667 2.33333C11.6667 3.622 12.7114 4.66667 14.0001 4.66667Z" fill="white"/>
<path d="M14.0001 16.3337C15.2887 16.3337 16.3334 15.289 16.3334 14.0003C16.3334 12.7117 15.2887 11.667 14.0001 11.667C12.7114 11.667 11.6667 12.7117 11.6667 14.0003C11.6667 15.289 12.7114 16.3337 14.0001 16.3337Z" fill="white"/>
<path d="M14.0001 27.9997C15.2887 27.9997 16.3334 26.955 16.3334 25.6664C16.3334 24.3777 15.2887 23.333 14.0001 23.333C12.7114 23.333 11.6667 24.3777 11.6667 25.6664C11.6667 26.955 12.7114 27.9997 14.0001 27.9997Z" fill="white"/>
</g>
<defs>
<clipPath id="clip0_32_129">
<rect width="28" height="28" fill="white"/>
</clipPath>
</defs>
</svg>
