<svg width="30" height="30" viewBox="0 0 30 30" fill="none" xmlns="http://www.w3.org/2000/svg">
<g clip-path="url(#clip0_32_115)">
<path d="M28.7498 13.7507H26.2498V11.2507C26.2498 10.9192 26.1181 10.6013 25.8837 10.3668C25.6493 10.1324 25.3313 10.0007 24.9998 10.0007C24.6683 10.0007 24.3503 10.1324 24.1159 10.3668C23.8815 10.6013 23.7498 10.9192 23.7498 11.2507V13.7507H21.2498C20.9183 13.7507 20.6004 13.8824 20.3659 14.1168C20.1315 14.3513 19.9998 14.6692 19.9998 15.0007C19.9998 15.3322 20.1315 15.6502 20.3659 15.8846C20.6004 16.119 20.9183 16.2507 21.2498 16.2507H23.7498V18.7507C23.7498 19.0822 23.8815 19.4002 24.1159 19.6346C24.3503 19.869 24.6683 20.0007 24.9998 20.0007C25.3313 20.0007 25.6493 19.869 25.8837 19.6346C26.1181 19.4002 26.2498 19.0822 26.2498 18.7507V16.2507H28.7498C29.0813 16.2507 29.3993 16.119 29.6337 15.8846C29.8681 15.6502 29.9998 15.3322 29.9998 15.0007C29.9998 14.6692 29.8681 14.3513 29.6337 14.1168C29.3993 13.8824 29.0813 13.7507 28.7498 13.7507Z" fill="white"/>
<path d="M11.25 14.9999C12.7333 14.9999 14.1834 14.56 15.4168 13.7359C16.6501 12.9118 17.6114 11.7405 18.1791 10.37C18.7467 8.99956 18.8953 7.49156 18.6059 6.0367C18.3165 4.58185 17.6022 3.24547 16.5533 2.19658C15.5044 1.14769 14.168 0.433381 12.7132 0.143992C11.2583 -0.145397 9.75031 0.00312757 8.37986 0.570785C7.00941 1.13844 5.83807 2.09974 5.01396 3.3331C4.18985 4.56647 3.74998 6.01652 3.74998 7.49988C3.75197 9.4884 4.54278 11.3949 5.94888 12.801C7.35497 14.2071 9.26147 14.9979 11.25 14.9999ZM11.25 2.49988C12.2389 2.49988 13.2056 2.79313 14.0278 3.34253C14.8501 3.89194 15.4909 4.67283 15.8694 5.58646C16.2478 6.5001 16.3468 7.50543 16.1539 8.47533C15.961 9.44524 15.4848 10.3362 14.7855 11.0354C14.0863 11.7347 13.1953 12.2109 12.2254 12.4038C11.2555 12.5967 10.2502 12.4977 9.33657 12.1193C8.42294 11.7408 7.64204 11.1 7.09264 10.2777C6.54323 9.45549 6.24998 8.48879 6.24998 7.49988C6.24998 6.1738 6.77677 4.90203 7.71445 3.96435C8.65213 3.02667 9.9239 2.49988 11.25 2.49988V2.49988Z" fill="white"/>
<path d="M11.25 17.5007C8.26731 17.504 5.40776 18.6904 3.29869 20.7994C1.18962 22.9085 0.00329331 25.7681 -1.52588e-05 28.7507C-1.52588e-05 29.0823 0.131681 29.4002 0.366101 29.6346C0.600522 29.869 0.918464 30.0007 1.24998 30.0007C1.58151 30.0007 1.89945 29.869 2.13387 29.6346C2.36829 29.4002 2.49998 29.0823 2.49998 28.7507C2.49998 26.4301 3.42186 24.2045 5.0628 22.5635C6.70374 20.9226 8.92934 20.0007 11.25 20.0007C13.5706 20.0007 15.7962 20.9226 17.4372 22.5635C19.0781 24.2045 20 26.4301 20 28.7507C20 29.0823 20.1317 29.4002 20.3661 29.6346C20.6005 29.869 20.9185 30.0007 21.25 30.0007C21.5815 30.0007 21.8994 29.869 22.1339 29.6346C22.3683 29.4002 22.5 29.0823 22.5 28.7507C22.4967 25.7681 21.3103 22.9085 19.2013 20.7994C17.0922 18.6904 14.2327 17.504 11.25 17.5007V17.5007Z" fill="white"/>
</g>
<defs>
<clipPath id="clip0_32_115">
<rect width="30" height="30" fill="white"/>
</clipPath>
</defs>
</svg>
