<svg width="34" height="34" viewBox="0 0 34 34" fill="none" xmlns="http://www.w3.org/2000/svg">
<path d="M32.4999 1.49996C32.0155 1.01566 31.3585 0.743591 30.6735 0.743591C29.9885 0.743591 29.3315 1.01566 28.8471 1.49996L16.9999 13.3471L5.15273 1.49996C4.66828 1.01566 4.01132 0.743591 3.32631 0.743591C2.6413 0.743591 1.98434 1.01566 1.4999 1.49996C1.0156 1.9844 0.74353 2.64137 0.74353 3.32637C0.74353 4.01138 1.0156 4.66834 1.4999 5.15279L13.3471 17L1.4999 28.8471C1.0156 29.3316 0.74353 29.9885 0.74353 30.6735C0.74353 31.3586 1.0156 32.0155 1.4999 32.5C1.98434 32.9843 2.6413 33.2563 3.32631 33.2563C4.01132 33.2563 4.66828 32.9843 5.15273 32.5L16.9999 20.6528L28.8471 32.5C29.3315 32.9843 29.9885 33.2563 30.6735 33.2563C31.3585 33.2563 32.0155 32.9843 32.4999 32.5C32.9842 32.0155 33.2563 31.3586 33.2563 30.6735C33.2563 29.9885 32.9842 29.3316 32.4999 28.8471L20.6527 17L32.4999 5.15279C32.9842 4.66834 33.2563 4.01138 33.2563 3.32637C33.2563 2.64137 32.9842 1.9844 32.4999 1.49996V1.49996Z" fill="white"/>
</svg>
