<svg width="30" height="30" viewBox="0 0 30 30" fill="none" xmlns="http://www.w3.org/2000/svg">
<path d="M21.2502 30C19.5196 30 17.8279 29.4868 16.389 28.5254C14.95 27.5639 13.8285 26.1973 13.1663 24.5985C12.504 22.9996 12.3307 21.2403 12.6683 19.543C13.0059 17.8456 13.8393 16.2865 15.063 15.0628C16.2867 13.8391 17.8458 13.0058 19.5432 12.6681C21.2405 12.3305 22.9998 12.5038 24.5987 13.1661C26.1975 13.8283 27.5641 14.9498 28.5256 16.3888C29.487 17.8277 30.0002 19.5194 30.0002 21.25C29.9976 23.5698 29.0748 25.7939 27.4345 27.4343C25.7941 29.0746 23.57 29.9974 21.2502 30ZM21.2502 15C20.0141 15 18.8057 15.3666 17.7779 16.0533C16.7501 16.7401 15.949 17.7162 15.476 18.8582C15.0029 20.0003 14.8791 21.2569 15.1203 22.4693C15.3614 23.6817 15.9567 24.7953 16.8308 25.6694C17.7049 26.5435 18.8185 27.1388 20.0309 27.3799C21.2433 27.6211 22.4999 27.4973 23.642 27.0243C24.784 26.5512 25.7601 25.7501 26.4469 24.7223C27.1336 23.6945 27.5002 22.4861 27.5002 21.25C27.4982 19.593 26.8391 18.0045 25.6674 16.8328C24.4958 15.6611 22.9072 15.002 21.2502 15ZM23.384 23.3838C23.6183 23.1493 23.7499 22.8315 23.7499 22.5C23.7499 22.1685 23.6183 21.8507 23.384 21.6163L22.5002 20.7325V18.75C22.5002 18.4185 22.3685 18.1005 22.1341 17.8661C21.8997 17.6317 21.5817 17.5 21.2502 17.5C20.9187 17.5 20.6007 17.6317 20.3663 17.8661C20.1319 18.1005 20.0002 18.4185 20.0002 18.75V21.25C20.0003 21.5815 20.132 21.8994 20.3664 22.1338L21.6164 23.3838C21.8509 23.6181 22.1687 23.7497 22.5002 23.7497C22.8317 23.7497 23.1495 23.6181 23.384 23.3838ZM2.5002 28.75C2.50336 26.4532 3.26855 24.2224 4.67582 22.4073C6.0831 20.5922 8.0529 19.2953 10.2765 18.72C10.4367 18.6837 10.5882 18.6162 10.7223 18.5214C10.8564 18.4266 10.9706 18.3063 11.0582 18.1673C11.1458 18.0284 11.2053 17.8736 11.233 17.7117C11.2608 17.5498 11.2565 17.384 11.2202 17.2238C11.1839 17.0635 11.1164 16.912 11.0216 16.7779C10.9268 16.6438 10.8065 16.5296 10.6675 16.442C10.5286 16.3544 10.3738 16.295 10.2119 16.2672C10.05 16.2394 9.88416 16.2437 9.72395 16.28C6.93775 16.9637 4.46303 18.5659 2.69892 20.8282C0.934801 23.0906 -0.0158783 25.8812 0.000200655 28.75C0.000200655 29.0815 0.131897 29.3995 0.366317 29.6339C0.600738 29.8683 0.91868 30 1.2502 30C1.58172 30 1.89966 29.8683 2.13408 29.6339C2.3685 29.3995 2.5002 29.0815 2.5002 28.75ZM10.5927 13.75C9.23295 13.75 7.90374 13.3468 6.77316 12.5914C5.64257 11.8359 4.76138 10.7622 4.24103 9.50595C3.72068 8.24971 3.58453 6.86738 3.8498 5.53376C4.11508 4.20014 4.76986 2.97513 5.73134 2.01364C6.69283 1.05216 7.91784 0.397378 9.25146 0.132104C10.5851 -0.133169 11.9674 0.00297886 13.2236 0.523331C14.4799 1.04368 15.5536 1.92487 16.3091 3.05546C17.0645 4.18605 17.4677 5.51526 17.4677 6.875C17.4657 8.69776 16.7407 10.4453 15.4519 11.7342C14.163 13.0231 12.4155 13.748 10.5927 13.75ZM10.5927 2.5C9.72741 2.5 8.88155 2.75659 8.16208 3.23732C7.44262 3.71805 6.88186 4.40134 6.55073 5.20076C6.21959 6.00019 6.13296 6.87986 6.30177 7.72852C6.47058 8.57719 6.88725 9.35674 7.49911 9.9686C8.11096 10.5805 8.89051 10.9971 9.73918 11.1659C10.5878 11.3348 11.4675 11.2481 12.2669 10.917C13.0664 10.5858 13.7496 10.0251 14.2304 9.30562C14.7111 8.58616 14.9677 7.7403 14.9677 6.875C14.9677 5.71468 14.5068 4.60188 13.6863 3.78141C12.8658 2.96094 11.753 2.5 10.5927 2.5Z" fill="white"/>
</svg>
